<?xml version="1.0" encoding="UTF-8"?>
<!DOCTYPE svg PUBLIC "-//W3C//DTD SVG 1.1//EN" "http://www.w3.org/Graphics/SVG/1.1/DTD/svg11.dtd">
<svg xmlns="http://www.w3.org/2000/svg" version="1.1" width="100px" height="98px" style="shape-rendering:geometricPrecision; text-rendering:geometricPrecision; image-rendering:optimizeQuality; fill-rule:evenodd; clip-rule:evenodd" xmlns:xlink="http://www.w3.org/1999/xlink">
<g><path style="opacity:1" fill="#515967" d="M 18.5,0.5 C 39.811,1.01104 61.1443,1.84437 82.5,3C 60.3295,3.16801 38.3295,3.66801 16.5,4.5C 9.65635,5.84267 5.15635,9.84267 3,16.5C 2.17855,38.5728 2.34522,60.5728 3.5,82.5C 2.79778,83.1157 1.79778,83.1157 0.5,82.5C 0.166667,82.5 -0.166667,82.5 -0.5,82.5C -0.5,60.1667 -0.5,37.8333 -0.5,15.5C 2.55839,6.45832 8.89173,1.45832 18.5,0.5 Z"/></g>
<g><path style="opacity:1" fill="#7ab0d0" d="M 16.5,4.5 C 38.8358,4.33337 61.1692,4.50004 83.5,5C 90.7157,6.71585 95.049,11.2158 96.5,18.5C 96.5,38.8333 96.5,59.1667 96.5,79.5C 95.3326,84.502 92.6659,88.502 88.5,91.5C 86.412,92.9395 84.0786,93.6061 81.5,93.5C 58.8309,93.6666 36.1642,93.5 13.5,93C 8.55732,90.8941 5.22399,87.3941 3.5,82.5C 2.34522,60.5728 2.17855,38.5728 3,16.5C 5.15635,9.84267 9.65635,5.84267 16.5,4.5 Z"/></g>
<g><path style="opacity:1" fill="#313444" d="M 14.5,86.5 C 14.9382,86.5654 15.2716,86.3988 15.5,86C 13.3333,85.1667 11.8333,83.6667 11,81.5C 10.8319,59.9961 10.3319,38.6627 9.5,17.5C 10.5434,14.9438 12.2101,12.7772 14.5,11C 37.8333,10.3333 61.1667,10.3333 84.5,11C 86.7089,12.8734 88.5422,15.04 90,17.5C 90.6667,38.1667 90.6667,58.8333 90,79.5C 89.1667,84.3333 86.3333,87.1667 81.5,88C 59.5,88.6667 37.5,88.6667 15.5,88C 14.944,87.6174 14.6107,87.1174 14.5,86.5 Z"/></g>
<g><path style="opacity:1" fill="#83b6d6" d="M 22.5,27.5 C 40.1698,27.3334 57.8365,27.5001 75.5,28C 76.8333,30 76.8333,32 75.5,34C 57.8333,34.6667 40.1667,34.6667 22.5,34C 21.232,31.8368 21.232,29.6702 22.5,27.5 Z"/></g>
<g><path style="opacity:1" fill="#20232f" d="M 76.5,48.5 C 76.0472,47.5416 75.3805,46.7083 74.5,46C 57.5033,45.5001 40.5033,45.3334 23.5,45.5C 40.0923,44.341 57.4256,44.1744 75.5,45C 77.7969,46.2633 78.6302,48.0966 78,50.5C 77.7216,49.5842 77.2216,48.9175 76.5,48.5 Z"/></g>
<g><path style="opacity:1" fill="#2d3241" d="M 9.5,17.5 C 10.3319,38.6627 10.8319,59.9961 11,81.5C 11.8333,83.6667 13.3333,85.1667 15.5,86C 15.2716,86.3988 14.9382,86.5654 14.5,86.5C 11.5479,85.6411 9.71461,83.6411 9,80.5C 8.17065,59.3293 8.33732,38.3293 9.5,17.5 Z"/></g>
<g><path style="opacity:1" fill="#81b3d2" d="M 76.5,49.5 C 76.573,51.0269 75.9063,52.0269 74.5,52.5C 57.6716,51.6684 40.6716,51.1684 23.5,51C 22.5494,50.2825 22.3828,49.4491 23,48.5C 40.0928,47.3419 57.2595,47.1753 74.5,48C 75.0442,48.7172 75.7109,49.2172 76.5,49.5 Z"/></g>
<g><path style="opacity:1" fill="#7faec9" d="M 23.5,45.5 C 40.5033,45.3334 57.5033,45.5001 74.5,46C 75.3805,46.7083 76.0472,47.5416 76.5,48.5C 76.5,48.8333 76.5,49.1667 76.5,49.5C 75.7109,49.2172 75.0442,48.7172 74.5,48C 57.2595,47.1753 40.0928,47.3419 23,48.5C 22.3828,49.4491 22.5494,50.2825 23.5,51C 40.6716,51.1684 57.6716,51.6684 74.5,52.5C 57.6717,53.6617 40.6717,53.8284 23.5,53C 20.9142,50.506 20.9142,48.006 23.5,45.5 Z"/></g>
<g><path style="opacity:1" fill="#4e5568" d="M 96.5,18.5 C 97.2679,19.2625 97.7679,20.2625 98,21.5C 98.6667,41.5 98.6667,61.5 98,81.5C 97.2828,80.9558 96.7828,80.2891 96.5,79.5C 96.5,59.1667 96.5,38.8333 96.5,18.5 Z"/></g>
<g><path style="opacity:1" fill="#80b2d2" d="M 75.5,66.5 C 76.8333,67.8333 76.8333,69.1667 75.5,70.5C 58.4699,70.6387 41.1365,70.4721 23.5,70C 22.1667,69 22.1667,68 23.5,67C 41.1365,66.5279 58.4699,66.3613 75.5,66.5 Z"/></g>
<g><path style="opacity:1" fill="#82b0cb" d="M 75.5,66.5 C 58.4699,66.3613 41.1365,66.5279 23.5,67C 22.1667,68 22.1667,69 23.5,70C 41.1365,70.4721 58.4699,70.6387 75.5,70.5C 75.3893,71.1174 75.056,71.6174 74.5,72C 57.5,72.6667 40.5,72.6667 23.5,72C 20.8333,69.6667 20.8333,67.3333 23.5,65C 40.5,64.3333 57.5,64.3333 74.5,65C 75.056,65.3826 75.3893,65.8826 75.5,66.5 Z"/></g>
<g><path style="opacity:1" fill="#606877" d="M 18.5,0.5 C 40.5025,0.333372 62.5025,0.500038 84.5,1C 92.0159,3.35087 97.0159,8.18421 99.5,15.5C 99.5,37.8333 99.5,60.1667 99.5,82.5C 97.6617,88.177 93.995,92.177 88.5,94.5C 88.5,93.5 88.5,92.5 88.5,91.5C 92.6659,88.502 95.3326,84.502 96.5,79.5C 96.7828,80.2891 97.2828,80.9558 98,81.5C 98.6667,61.5 98.6667,41.5 98,21.5C 97.7679,20.2625 97.2679,19.2625 96.5,18.5C 95.049,11.2158 90.7157,6.71585 83.5,5C 61.1692,4.50004 38.8358,4.33337 16.5,4.5C 38.3295,3.66801 60.3295,3.16801 82.5,3C 61.1443,1.84437 39.811,1.01104 18.5,0.5 Z"/></g>
<g><path style="opacity:1" fill="#566778" d="M 0.5,82.5 C 1.79778,83.1157 2.79778,83.1157 3.5,82.5C 5.22399,87.3941 8.55732,90.8941 13.5,93C 36.1642,93.5 58.8309,93.6666 81.5,93.5C 60.3373,94.3319 39.0039,94.8319 17.5,95C 21.3563,95.1773 25.023,95.6773 28.5,96.5C 23.1563,96.666 17.8229,96.4994 12.5,96C 5.80476,93.8094 1.80476,89.3094 0.5,82.5 Z"/></g>
<g><path style="opacity:1" fill="#494f61" d="M 88.5,91.5 C 88.5,92.5 88.5,93.5 88.5,94.5C 69.3595,95.1299 50.3595,95.7966 31.5,96.5C 30.5,96.5 29.5,96.5 28.5,96.5C 25.023,95.6773 21.3563,95.1773 17.5,95C 39.0039,94.8319 60.3373,94.3319 81.5,93.5C 84.0786,93.6061 86.412,92.9395 88.5,91.5 Z"/></g>
<g><path style="opacity:0.838" fill="#5f6677" d="M 88.5,94.5 C 88.0825,95.2216 87.4158,95.7216 86.5,96C 68.1697,96.4999 49.8364,96.6666 31.5,96.5C 50.3595,95.7966 69.3595,95.1299 88.5,94.5 Z"/></g>
</svg>
