<?xml version="1.0" encoding="UTF-8"?>
<!DOCTYPE svg PUBLIC "-//W3C//DTD SVG 1.1//EN" "http://www.w3.org/Graphics/SVG/1.1/DTD/svg11.dtd">
<svg xmlns="http://www.w3.org/2000/svg" version="1.1" width="100px" height="98px" style="shape-rendering:geometricPrecision; text-rendering:geometricPrecision; image-rendering:optimizeQuality; fill-rule:evenodd; clip-rule:evenodd" xmlns:xlink="http://www.w3.org/1999/xlink">
<g><path style="opacity:0.937" fill="#fbfbfc" d="M 41.5,-0.5 C 46.8333,-0.5 52.1667,-0.5 57.5,-0.5C 61.7995,0.931677 65.7995,3.09834 69.5,6C 77.9423,14.378 86.9423,22.0447 96.5,29C 97.6087,30.8761 98.6087,32.7095 99.5,34.5C 99.5,35.5 99.5,36.5 99.5,37.5C 98.4897,40.3301 96.8231,42.8301 94.5,45C 96.3003,46.8119 97.9669,48.6452 99.5,50.5C 99.5,54.8333 99.5,59.1667 99.5,63.5C 83.8098,74.8653 68.1432,86.1986 52.5,97.5C 50.5,97.5 48.5,97.5 46.5,97.5C 31.0509,86.268 15.3842,75.268 -0.5,64.5C -0.5,59.8333 -0.5,55.1667 -0.5,50.5C 0.984579,48.8379 2.31791,47.0046 3.5,45C 1.50189,42.7638 0.168556,40.2638 -0.5,37.5C -0.5,36.5 -0.5,35.5 -0.5,34.5C 0.391268,32.7095 1.39127,30.8761 2.5,29C 11.5,21.3333 20.5,13.6667 29.5,6C 33.1574,3.00783 37.1574,0.841161 41.5,-0.5 Z"/></g>
<g><path style="opacity:1" fill="#184d58" d="M 42.5,7.5 C 49.184,6.84869 55.5174,8.01536 61.5,11C 71.3404,19.3428 81.007,27.8428 90.5,36.5C 88.3714,39.2627 86.3714,42.096 84.5,45C 87.1667,49 89.8333,53 92.5,57C 78.6197,68.2909 64.2864,79.1243 49.5,89.5C 34.5533,79.2202 19.8866,68.5535 5.5,57.5C 8.62806,53.4044 11.6281,49.2378 14.5,45C 12.6811,42.5107 10.8478,40.0107 9,37.5C 8.33333,36.8333 8.33333,36.1667 9,35.5C 19.7723,25.5493 30.939,16.2159 42.5,7.5 Z"/></g>
<g><path style="opacity:1" fill="#e8eff0" d="M 83.5,49.5 C 85.8293,51.837 87.3293,54.5037 88,57.5C 80.2257,63.2985 72.3924,68.9652 64.5,74.5C 64.0618,74.5654 63.7284,74.3988 63.5,74C 69.9689,68.5323 76.1356,62.699 82,56.5C 82.1862,53.9644 82.6862,51.631 83.5,49.5 Z"/></g>
<g><path style="opacity:1" fill="#2d99bb" d="M 83.5,49.5 C 82.6862,51.631 82.1862,53.9644 82,56.5C 76.1356,62.699 69.9689,68.5323 63.5,74C 63.7284,74.3988 64.0618,74.5654 64.5,74.5C 62.8121,76.3867 60.8121,77.5534 58.5,78C 66.1667,68.3333 73.8333,58.6667 81.5,49C 82.4368,48.3083 83.1034,48.475 83.5,49.5 Z"/></g>
<g><path style="opacity:1" fill="#1794b8" d="M 15.5,49.5 C 15.56,48.9569 15.8933,48.6236 16.5,48.5C 17.8139,49.3128 18.9805,50.3128 20,51.5C 25.7437,59.0636 31.2437,66.7303 36.5,74.5C 29.5697,69.0738 23.0697,63.0738 17,56.5C 16.8138,53.9644 16.3138,51.631 15.5,49.5 Z"/></g>
<g><path style="opacity:1" fill="#e4eef0" d="M 15.5,49.5 C 16.3138,51.631 16.8138,53.9644 17,56.5C 23.0697,63.0738 29.5697,69.0738 36.5,74.5C 36.5,75.1667 36.1667,75.5 35.5,75.5C 27.2112,69.7177 19.0445,63.7177 11,57.5C 11.6707,54.5037 13.1707,51.837 15.5,49.5 Z"/></g>
<g><path style="opacity:1" fill="#e7f0f2" d="M 52.5,77.5 C 51.8761,77.0831 51.5427,76.4164 51.5,75.5C 54.2132,66.5487 56.3799,57.5487 58,48.5C 51.2911,42.9519 44.4578,37.6186 37.5,32.5C 36.9569,32.44 36.6236,32.1067 36.5,31.5C 37.0016,30.479 37.6683,30.3123 38.5,31C 47.672,36.7519 56.672,42.7519 65.5,49C 60.7523,58.3276 56.4189,67.8276 52.5,77.5 Z"/></g>
<g><path style="opacity:1" fill="#1692b5" d="M 61.5,32.5 C 61.0481,35.203 60.3815,37.8697 59.5,40.5C 57.6036,39.7255 55.937,38.7255 54.5,37.5C 57.1117,36.2213 59.4451,34.5547 61.5,32.5 Z"/></g>
<g><path style="opacity:1" fill="#0f93b8" d="M 37.5,32.5 C 44.4578,37.6186 51.2911,42.9519 58,48.5C 56.3799,57.5487 54.2132,66.5487 51.5,75.5C 51.5427,76.4164 51.8761,77.0831 52.5,77.5C 51.928,78.9733 51.0946,80.3066 50,81.5C 45.1118,65.3382 40.9451,49.0048 37.5,32.5 Z"/></g>
<g><path style="opacity:1" fill="#e3edf0" d="M 61.5,32.5 C 59.4451,34.5547 57.1117,36.2213 54.5,37.5C 53.2264,36.8106 53.2264,35.9772 54.5,35C 56.8333,33.5 59.1667,32 61.5,30.5C 62.7733,31.2565 62.7733,31.9232 61.5,32.5 Z"/></g>
<g><path style="opacity:1" fill="#eff4f5" d="M 69.5,22.5 C 75.3251,26.8268 80.6584,31.6601 85.5,37C 76.7937,48.9053 67.9604,60.7386 59,72.5C 62.1765,64.4688 65.6765,56.4688 69.5,48.5C 71.8067,44.563 74.1401,40.563 76.5,36.5C 74.1401,31.7802 71.8068,27.1136 69.5,22.5 Z"/></g>
<g><path style="opacity:1" fill="#1494b8" d="M 69.5,22.5 C 71.8068,27.1136 74.1401,31.7802 76.5,36.5C 74.1401,40.563 71.8067,44.563 69.5,48.5C 67.4769,46.1629 65.4769,43.8296 63.5,41.5C 64.7304,36.5146 65.8971,31.5146 67,26.5C 67.2903,24.0808 68.1237,22.7475 69.5,22.5 Z"/></g>
<g><path style="opacity:1" fill="#1894b7" d="M 34.5,18.5 C 37.5508,24.501 42.5508,27.1677 49.5,26.5C 55.2971,26.4329 60.2971,24.4329 64.5,20.5C 63.9087,23.6136 62.242,26.1136 59.5,28C 56.0319,29.9698 52.6985,32.1365 49.5,34.5C 43.5204,31.5885 38.3537,27.5885 34,22.5C 33.235,20.9343 33.4017,19.6009 34.5,18.5 Z"/></g>
<g><path style="opacity:1" fill="#1692b6" d="M 28.5,22.5 C 29.5659,21.3079 30.3992,21.6412 31,23.5C 35.2977,41.8606 40.131,60.0273 45.5,78C 43.4173,77.4412 42.084,75.9412 41.5,73.5C 35.8243,60.6483 29.4909,48.1483 22.5,36C 24.826,31.6825 27.1594,27.3491 29.5,23C 29.2716,22.6012 28.9382,22.4346 28.5,22.5 Z"/></g>
<g><path style="opacity:1" fill="#f0f5f6" d="M 28.5,22.5 C 28.9382,22.4346 29.2716,22.6012 29.5,23C 27.1594,27.3491 24.826,31.6825 22.5,36C 29.4909,48.1483 35.8243,60.6483 41.5,73.5C 31.6118,61.4172 21.9451,49.0839 12.5,36.5C 18.1746,32.1545 23.5079,27.4878 28.5,22.5 Z"/></g>
<g><path style="opacity:1" fill="#f8fafb" d="M 64.5,20.5 C 60.2971,24.4329 55.2971,26.4329 49.5,26.5C 42.5508,27.1677 37.5508,24.501 34.5,18.5C 43.8442,8.1914 53.6776,7.85807 64,17.5C 64.4828,18.448 64.6495,19.448 64.5,20.5 Z"/></g>
<g><path style="opacity:1" fill="#72a7b5" d="M 36.5,74.5 C 37.9616,75.4577 39.2949,76.6244 40.5,78C 38.5415,77.9031 36.8748,77.0698 35.5,75.5C 36.1667,75.5 36.5,75.1667 36.5,74.5 Z"/></g>
</svg>
