<?xml version="1.0" encoding="UTF-8"?>
<!DOCTYPE svg PUBLIC "-//W3C//DTD SVG 1.1//EN" "http://www.w3.org/Graphics/SVG/1.1/DTD/svg11.dtd">
<svg xmlns="http://www.w3.org/2000/svg" version="1.1" width="5070px" height="963px" style="shape-rendering:geometricPrecision; text-rendering:geometricPrecision; image-rendering:optimizeQuality; fill-rule:evenodd; clip-rule:evenodd" xmlns:xlink="http://www.w3.org/1999/xlink">
<g><path style="opacity:0.945" fill="#74bbdf" d="M 205.5,-0.5 C 206.833,-0.5 208.167,-0.5 209.5,-0.5C 288.041,18.8013 366.707,38.1346 445.5,57.5C 500.388,44.6306 555.721,34.4639 611.5,27C 614.667,30.1667 617.833,33.3333 621,36.5C 624.429,55.8825 629.262,74.8825 635.5,93.5C 655.257,94.1492 674.923,95.6492 694.5,98C 700.532,105.898 704.532,114.731 706.5,124.5C 735.825,132.665 765.159,140.832 794.5,149C 801.111,153.06 805.111,158.894 806.5,166.5C 777.975,274.1 750.308,381.933 723.5,490C 746.273,594.26 769.44,698.426 793,802.5C 794.073,810.017 793.406,817.35 791,824.5C 789.168,827.361 787.001,829.861 784.5,832C 758.837,838.232 733.171,844.399 707.5,850.5C 705.337,858.484 703.17,866.484 701,874.5C 699.067,879.978 696.567,885.145 693.5,890C 667.201,891.912 640.868,892.745 614.5,892.5C 612.409,911.773 607.076,930.107 598.5,947.5C 594.95,948.878 591.283,949.878 587.5,950.5C 534.723,937.43 481.89,924.764 429,912.5C 353.974,928.736 279.141,945.403 204.5,962.5C 201.5,962.5 198.5,962.5 195.5,962.5C 190.314,960.157 186.148,956.491 183,951.5C 178.533,932.938 173.367,914.604 167.5,896.5C 148.697,892.775 129.697,890.608 110.5,890C 108.04,888.542 105.873,886.709 104,884.5C 99.305,864.33 95.4717,843.997 92.5,823.5C 65.5481,816.512 38.5481,809.679 11.5,803C 7.33222,799.664 3.33222,796.164 -0.5,792.5C -0.5,791.167 -0.5,789.833 -0.5,788.5C 23.8013,684.46 49.468,580.627 76.5,477C 53.7679,377.24 31.4345,277.406 9.5,177.5C 9.8106,170.947 11.1439,164.613 13.5,158.5C 39.5046,150.248 65.8379,143.081 92.5,137C 96.0319,123.738 100.365,110.738 105.5,98C 123.407,95.9162 141.407,94.7496 159.5,94.5C 165.193,94.6033 170.86,94.9366 176.5,95.5C 181.525,62.058 191.192,30.058 205.5,-0.5 Z M 227.5,42.5 C 270.901,53.6838 314.234,65.1838 357.5,77C 311.312,92.7901 263.978,97.6235 215.5,91.5C 220.262,75.3568 224.262,59.0234 227.5,42.5 Z M 588.5,91.5 C 552.757,92.0677 517.09,90.7344 481.5,87.5C 517.169,79.7013 553.169,73.0346 589.5,67.5C 590.119,74.3797 591.119,81.213 592.5,88C 592.576,90.7561 591.243,91.9228 588.5,91.5 Z M 140.5,133.5 C 314.833,133.5 489.167,133.5 663.5,133.5C 663.5,373.5 663.5,613.5 663.5,853.5C 487.5,853.5 311.5,853.5 135.5,853.5C 135.5,613.5 135.5,373.5 135.5,133.5C 137.167,133.5 138.833,133.5 140.5,133.5 Z M 710.5,167.5 C 725.33,169.833 739.997,173 754.5,177C 757.379,178.885 759.045,181.551 759.5,185C 741.956,251.673 725.623,318.506 710.5,385.5C 705.216,312.84 705.216,240.173 710.5,167.5 Z M 97.5,178.5 C 98.3043,247.88 96.9709,317.213 93.5,386.5C 78.5752,319.544 64.9085,252.211 52.5,184.5C 67.2645,182.014 81.9312,179.014 96.5,175.5C 97.3857,176.325 97.719,177.325 97.5,178.5 Z M 88.5,575.5 C 89.2679,576.263 89.7679,577.263 90,578.5C 94.4411,609.675 96.9411,641.008 97.5,672.5C 96.2428,710.521 94.5761,748.521 92.5,786.5C 76.5692,780.357 60.2359,775.524 43.5,772C 42.0297,770.207 41.0297,768.207 40.5,766C 58.6176,703.03 74.6176,639.53 88.5,575.5 Z M 710.5,610.5 C 722.742,671.695 736.408,732.695 751.5,793.5C 750.818,796.366 749.484,798.866 747.5,801C 733.858,804.66 720.191,808.16 706.5,811.5C 705.617,744.445 706.95,677.445 710.5,610.5 Z M 214.5,891.5 C 252.185,891.492 289.852,892.325 327.5,894C 291.983,902.921 256.483,911.754 221,920.5C 212.741,912.977 209.241,903.643 210.5,892.5C 212.099,892.768 213.432,892.434 214.5,891.5 Z M 549.5,891.5 C 558.173,891.334 566.84,891.5 575.5,892C 576.804,897.114 576.804,902.281 575.5,907.5C 557.879,903.512 540.212,899.678 522.5,896C 531.54,893.917 540.54,892.417 549.5,891.5 Z"/></g>
<g><path style="opacity:0.912" fill="#8ac5e3" d="M 481.5,87.5 C 517.09,90.7344 552.757,92.0677 588.5,91.5C 576.37,93.2005 564.037,94.3672 551.5,95C 526.167,95.6667 500.833,95.6667 475.5,95C 469.327,94.956 463.327,94.2893 457.5,93C 465.16,89.5846 473.16,87.7513 481.5,87.5 Z"/></g>
<g><path style="opacity:0.85" fill="#8cc7e4" d="M 135.5,853.5 C 311.5,853.5 487.5,853.5 663.5,853.5C 663.5,613.5 663.5,373.5 663.5,133.5C 489.167,133.5 314.833,133.5 140.5,133.5C 216.651,131.024 292.984,129.524 369.5,129C 469.166,128.5 568.833,128.333 668.5,128.5C 668.5,371.833 668.5,615.167 668.5,858.5C 562.833,858.667 457.166,858.5 351.5,858C 279.317,857.464 207.317,855.964 135.5,853.5 Z"/></g>
<g><path style="opacity:0.902" fill="#78bde0" d="M 710.5,167.5 C 705.216,240.173 705.216,312.84 710.5,385.5C 709.665,393.177 707.498,400.51 704,407.5C 700.489,325.81 700.989,244.144 705.5,162.5C 708.833,162.5 710.5,164.167 710.5,167.5 Z"/></g>
<g><path style="opacity:0.983" fill="#09434f" d="M 2865.5,621.5 C 2865.5,626.833 2865.5,632.167 2865.5,637.5C 2834.83,637.5 2804.17,637.5 2773.5,637.5C 2772.73,636.737 2772.23,635.737 2772,634.5C 2761.2,525.478 2750.2,416.478 2739,307.5C 2701.01,417.791 2662.85,527.958 2624.5,638C 2603,641.849 2581.34,643.349 2559.5,642.5C 2523.17,528.67 2485.33,415.337 2446,302.5C 2435.31,415.467 2424.97,528.467 2415,641.5C 2382.91,642.496 2350.74,642.829 2318.5,642.5C 2329.51,487.728 2341.84,333.061 2355.5,178.5C 2383.83,177.624 2412.16,177.791 2440.5,179C 2459.26,179.55 2477.93,181.05 2496.5,183.5C 2528.05,275.646 2559.88,367.646 2592,459.5C 2627.25,366.923 2659.41,273.256 2688.5,178.5C 2736.17,178.5 2783.83,178.5 2831.5,178.5C 2843.64,326.151 2854.97,473.818 2865.5,621.5 Z"/></g>
<g><path style="opacity:0.982" fill="#08434f" d="M 1080.5,178.5 C 1152.52,177.98 1224.52,178.813 1296.5,181C 1390.52,199.688 1446.35,256.188 1464,350.5C 1479.78,432.254 1464.12,507.254 1417,575.5C 1381.55,611.972 1338.39,633.139 1287.5,639C 1218.53,641.775 1149.53,642.942 1080.5,642.5C 1080.5,487.833 1080.5,333.167 1080.5,178.5 Z M 1196.5,260.5 C 1317.55,252.385 1373.39,308.718 1364,429.5C 1363.27,451.595 1358.94,472.928 1351,493.5C 1333.98,526.161 1307.14,545.328 1270.5,551C 1239.54,553.15 1208.54,553.983 1177.5,553.5C 1177.5,456.5 1177.5,359.5 1177.5,262.5C 1184.02,262.21 1190.35,261.543 1196.5,260.5 Z"/></g>
<g><path style="opacity:0.886" fill="#85c3e2" d="M 97.5,178.5 C 103.143,254.636 103.809,330.97 99.5,407.5C 97.4733,406.307 95.9733,404.64 95,402.5C 93.7288,397.246 93.2288,391.913 93.5,386.5C 96.9709,317.213 98.3043,247.88 97.5,178.5 Z"/></g>
<g><path style="opacity:0.96" fill="#77bce0" d="M 268.5,219.5 C 362.172,219.715 455.839,220.549 549.5,222C 553.5,222.333 557.5,222.667 561.5,223C 572.159,233.981 572.159,244.981 561.5,256C 455.167,259.333 348.833,259.333 242.5,256C 226.965,244.831 226.632,233.164 241.5,221C 250.676,220.83 259.676,220.33 268.5,219.5 Z"/></g>
<g><path style="opacity:0.972" fill="#0b4550" d="M 2078.5,302.5 C 2132.79,299.096 2180.45,314.929 2221.5,350C 2234.77,363.361 2244.94,378.861 2252,396.5C 2255.94,405.167 2258.78,414.167 2260.5,423.5C 2232.76,429.845 2204.76,434.345 2176.5,437C 2151.65,383.046 2111.65,367.379 2056.5,390C 2038.39,400.78 2026.23,416.28 2020,436.5C 2013.02,460.294 2012.02,484.294 2017,508.5C 2025.06,535.781 2042.23,554.948 2068.5,566C 2075.68,569.06 2083.01,571.727 2090.5,574C 2119.63,575.182 2143.13,564.348 2161,541.5C 2165.31,534.371 2169.48,527.204 2173.5,520C 2202.68,517.066 2231.35,519.732 2259.5,528C 2246.8,582.057 2214.13,618.723 2161.5,638C 2147.99,643.211 2133.99,645.878 2119.5,646C 2083.25,649.392 2048.25,644.392 2014.5,631C 1976.16,612.654 1949.66,583.487 1935,543.5C 1924.78,517.069 1919.45,489.736 1919,461.5C 1931.44,367.563 1984.6,314.563 2078.5,302.5 Z"/></g>
<g><path style="opacity:0.977" fill="#0d4551" d="M 3998.5,629.5 C 3973.73,636.978 3948.4,639.978 3922.5,638.5C 3920.14,638.663 3917.81,638.497 3915.5,638C 3910.91,628.918 3907.08,619.418 3904,609.5C 3858.6,646.046 3807.77,656.212 3751.5,640C 3705.19,617.536 3687.69,581.036 3699,530.5C 3708.32,497.019 3729.49,474.852 3762.5,464C 3800.36,450.869 3839.03,440.869 3878.5,434C 3907.34,417.57 3909.01,398.57 3883.5,377C 3857.65,368.633 3832.32,369.966 3807.5,381C 3795.25,392.005 3787.59,405.505 3784.5,421.5C 3756.44,417.319 3729.11,410.319 3702.5,400.5C 3713.89,350.946 3744.55,320.446 3794.5,309C 3823.98,302.809 3853.64,301.475 3883.5,305C 3910.4,309.408 3935.4,318.741 3958.5,333C 3978.38,352.941 3989.55,377.108 3992,405.5C 3993.09,480.202 3995.26,554.869 3998.5,629.5 Z M 3899.5,492.5 C 3907.72,549.816 3882.56,579.482 3824,581.5C 3799.15,579.848 3787.82,566.515 3790,541.5C 3790.55,535.897 3793.05,531.397 3797.5,528C 3831.5,515.836 3865.5,504.003 3899.5,492.5 Z"/></g>
<g><path style="opacity:0.977" fill="#0c4551" d="M 4614.5,302.5 C 4650.3,300.347 4684.97,305.513 4718.5,318C 4758.54,336.716 4784.04,367.549 4795,410.5C 4801.86,438.766 4804.36,467.433 4802.5,496.5C 4720.82,495.545 4639.15,496.211 4557.5,498.5C 4571.91,560.684 4610.25,583.85 4672.5,568C 4690.44,559.229 4704.77,546.395 4715.5,529.5C 4716.33,529.167 4717.17,528.833 4718,528.5C 4745.07,532.87 4771.9,538.037 4798.5,544C 4761.91,622.829 4700.24,656.829 4613.5,646C 4576.02,640.916 4542.68,626.582 4513.5,603C 4483.47,573.631 4467.3,537.798 4465,495.5C 4461.16,454.175 4468.83,415.175 4488,378.5C 4511.4,342.183 4544.23,318.683 4586.5,308C 4595.82,305.303 4605.15,303.47 4614.5,302.5 Z M 4625.5,370.5 C 4669.55,367.58 4697.55,387.247 4709.5,429.5C 4701.27,431.119 4692.94,431.952 4684.5,432C 4653.82,432.826 4623.15,432.493 4592.5,431C 4582.03,430.761 4571.7,429.594 4561.5,427.5C 4572.25,396.481 4593.58,377.481 4625.5,370.5 Z"/></g>
<g><path style="opacity:0.978" fill="#0c4550" d="M 1672.5,303.5 C 1714.46,301.827 1754.8,308.993 1793.5,325C 1836.69,346.495 1863.19,380.995 1873,428.5C 1878.7,458.678 1879.7,489.011 1876,519.5C 1859.26,586.571 1817.09,627.738 1749.5,643C 1693.01,653.732 1639.35,645.732 1588.5,619C 1531.06,573.9 1508.22,515.067 1520,442.5C 1539.29,361.369 1590.12,315.036 1672.5,303.5 Z M 1687.5,378.5 C 1737.43,376.611 1769.26,399.611 1783,447.5C 1795.88,534.952 1758.38,574.785 1670.5,567C 1623.99,544.161 1604.83,506.994 1613,455.5C 1621.86,414.143 1646.69,388.476 1687.5,378.5 Z"/></g>
<g><path style="opacity:0.977" fill="#0c4551" d="M 3231.5,628.5 C 3220.69,632.87 3209.35,635.703 3197.5,637C 3183.53,638.317 3169.53,638.817 3155.5,638.5C 3152.31,638.98 3149.48,638.314 3147,636.5C 3145.04,626.949 3141.71,617.949 3137,609.5C 3092.61,647.579 3042.44,657.745 2986.5,640C 2940.89,617.949 2923.06,581.782 2933,531.5C 2941.52,498.984 2961.35,476.484 2992.5,464C 3031.94,451.806 3071.94,441.806 3112.5,434C 3133.57,427.361 3140.4,413.527 3133,392.5C 3127.12,383.308 3118.95,377.142 3108.5,374C 3090.79,368.199 3073.13,368.199 3055.5,374C 3035.14,383.861 3021.81,399.695 3015.5,421.5C 2987.56,417.407 2960.56,410.074 2934.5,399.5C 2948.7,349.132 2981.37,318.632 3032.5,308C 3088.01,296.93 3140.68,304.596 3190.5,331C 3210.52,347.873 3222.02,369.373 3225,395.5C 3226.5,473.188 3228.67,550.855 3231.5,628.5 Z M 3132.5,492.5 C 3137.56,513.037 3134.72,533.037 3124,552.5C 3111.98,568.822 3095.82,577.988 3075.5,580C 3064.04,582.252 3052.71,581.919 3041.5,579C 3021.02,564.853 3018.02,547.52 3032.5,527C 3065.89,515.37 3099.23,503.87 3132.5,492.5 Z"/></g>
<g><path style="opacity:0.99" fill="#0b4450" d="M 3630.5,637.5 C 3601.5,637.5 3572.5,637.5 3543.5,637.5C 3543.67,595.165 3543.5,552.832 3543,510.5C 3542.1,488.328 3540.93,466.328 3539.5,444.5C 3540.45,430.009 3537.62,416.342 3531,403.5C 3522.23,391.426 3510.4,384.259 3495.5,382C 3454.17,373.914 3426.67,389.747 3413,429.5C 3412.29,496.872 3410.29,564.205 3407,631.5C 3406.81,633.708 3406.31,635.708 3405.5,637.5C 3376.5,637.5 3347.5,637.5 3318.5,637.5C 3318.5,530.5 3318.5,423.5 3318.5,316.5C 3318.5,314.833 3318.5,313.167 3318.5,311.5C 3347.94,310.724 3377.27,312.058 3406.5,315.5C 3406.5,316.5 3406.5,317.5 3406.5,318.5C 3405.88,327.091 3407.04,335.425 3410,343.5C 3412.53,344.519 3414.03,343.519 3414.5,340.5C 3470.85,297.754 3530.52,292.92 3593.5,326C 3616.24,346.096 3629.41,371.263 3633,401.5C 3636.56,478.85 3636.23,556.184 3632,633.5C 3631.79,635.058 3631.29,636.391 3630.5,637.5 Z"/></g>
<g><path style="opacity:0.977" fill="#0c4550" d="M 4301.5,639.5 C 4303.35,633.764 4304.51,627.764 4305,621.5C 4305.64,609.486 4305.48,597.486 4304.5,585.5C 4303.18,585.33 4302.01,585.663 4301,586.5C 4299.82,588.86 4298.65,591.193 4297.5,593.5C 4254.94,630.873 4206.94,639.707 4153.5,620C 4100.6,599.714 4068.1,561.881 4056,506.5C 4047.27,460.189 4053.94,416.189 4076,374.5C 4097,340.53 4127.17,319.363 4166.5,311C 4219.74,295.889 4265.41,308.056 4303.5,347.5C 4304.32,344.893 4304.82,342.226 4305,339.5C 4305.5,330.173 4305.67,320.839 4305.5,311.5C 4336.5,311.5 4367.5,311.5 4398.5,311.5C 4398.96,423.177 4398.12,534.844 4396,646.5C 4391.09,719.062 4354.25,766.895 4285.5,790C 4221.05,804.363 4159.71,796.03 4101.5,765C 4079.05,746.211 4062.38,723.211 4051.5,696C 4074.9,682.217 4099.4,670.717 4125,661.5C 4158.43,721.308 4206.59,737.142 4269.5,709C 4290.03,690.436 4300.7,667.269 4301.5,639.5 Z M 4209.5,379.5 C 4286.93,382.087 4318.76,421.421 4305,497.5C 4293.54,524.958 4273.37,542.458 4244.5,550C 4222.37,553.042 4201.37,549.376 4181.5,539C 4140.04,500.581 4133.88,457.081 4163,408.5C 4176.1,394.872 4191.6,385.205 4209.5,379.5 Z"/></g>
<g><path style="opacity:0.978" fill="#05424e" d="M 5064.5,307.5 C 5064.5,334.167 5064.5,360.833 5064.5,387.5C 5061.15,387.335 5057.82,387.502 5054.5,388C 5052.42,388.697 5050.75,389.864 5049.5,391.5C 5001.29,391.886 4973.79,415.886 4967,463.5C 4964.91,523.165 4964.41,582.832 4965.5,642.5C 4934.5,642.5 4903.5,642.5 4872.5,642.5C 4872.5,532.167 4872.5,421.833 4872.5,311.5C 4901.83,311.5 4931.17,311.5 4960.5,311.5C 4960.2,326.566 4961.04,341.566 4963,356.5C 4989.62,325.607 5023.46,309.274 5064.5,307.5 Z"/></g>
<g><path style="opacity:0.191" fill="#32656d" d="M 5064.5,307.5 C 5066.76,319.761 5068.43,332.094 5069.5,344.5C 5069.5,360.167 5069.5,375.833 5069.5,391.5C 5062.83,391.5 5056.17,391.5 5049.5,391.5C 5050.75,389.864 5052.42,388.697 5054.5,388C 5057.82,387.502 5061.15,387.335 5064.5,387.5C 5064.5,360.833 5064.5,334.167 5064.5,307.5 Z"/></g>
<g><path style="opacity:0.135" fill="#47747b" d="M 3318.5,316.5 C 3318.5,423.5 3318.5,530.5 3318.5,637.5C 3347.5,637.5 3376.5,637.5 3405.5,637.5C 3375.08,642.547 3344.58,643.547 3314,640.5C 3312.5,532.296 3314,424.296 3318.5,316.5 Z"/></g>
<g><path style="opacity:0.004" fill="#90acb0" d="M 3406.5,318.5 C 3409.34,325.687 3412.01,333.02 3414.5,340.5C 3414.03,343.519 3412.53,344.519 3410,343.5C 3407.04,335.425 3405.88,327.091 3406.5,318.5 Z"/></g>
<g><path style="opacity:0.976" fill="#80c0e1" d="M 271.5,344.5 C 362.505,344.768 453.505,345.601 544.5,347C 558.762,345.75 567.095,352.25 569.5,366.5C 567.346,379.739 559.68,386.239 546.5,386C 450.167,388 353.833,388 257.5,386C 243.244,386.377 234.244,379.71 230.5,366C 231.685,357.627 235.685,350.96 242.5,346C 252.342,345.83 262.009,345.33 271.5,344.5 Z"/></g>
<g><path style="opacity:0.319" fill="#2e616b" d="M 3539.5,444.5 C 3540.93,466.328 3542.1,488.328 3543,510.5C 3543.5,552.832 3543.67,595.165 3543.5,637.5C 3572.5,637.5 3601.5,637.5 3630.5,637.5C 3600.47,641.875 3570.14,643.541 3539.5,642.5C 3539.5,576.5 3539.5,510.5 3539.5,444.5 Z"/></g>
<g><path style="opacity:0.968" fill="#77bce0" d="M 238.5,474.5 C 316.167,474.333 393.834,474.5 471.5,475C 501.511,475.229 531.511,475.896 561.5,477C 572.159,488.019 572.159,499.019 561.5,510C 558.167,510.333 554.833,510.667 551.5,511C 451.833,513 352.167,513 252.5,511C 248.833,510.667 245.167,510.333 241.5,510C 227.927,499.244 226.927,487.41 238.5,474.5 Z"/></g>
<g><path style="opacity:0.861" fill="#7cbfe0" d="M 710.5,610.5 C 706.95,677.445 705.617,744.445 706.5,811.5C 703.917,780.946 702.417,749.612 702,717.5C 701.122,671.477 701.789,625.477 704,579.5C 708.736,589.235 710.903,599.568 710.5,610.5 Z"/></g>
<g><path style="opacity:0.057" fill="#61878f" d="M 4301.5,639.5 C 4302.63,623.937 4301.29,608.604 4297.5,593.5C 4298.65,591.193 4299.82,588.86 4301,586.5C 4302.01,585.663 4303.18,585.33 4304.5,585.5C 4305.48,597.486 4305.64,609.486 4305,621.5C 4304.51,627.764 4303.35,633.764 4301.5,639.5 Z"/></g>
<g><path style="opacity:0.979" fill="#83c1e1" d="M 242.5,599.5 C 317.834,599.333 393.167,599.5 468.5,600C 498.177,600.246 527.844,600.913 557.5,602C 568.705,608.299 571.872,617.465 567,629.5C 561.61,635.778 554.777,639.278 546.5,640C 497.669,640.979 448.836,641.812 400,642.5C 351.164,641.812 302.331,640.979 253.5,640C 228.723,632.173 225.056,618.673 242.5,599.5 Z"/></g>
<g><path style="opacity:0.134" fill="#49767d" d="M 2865.5,621.5 C 2867.13,623.858 2868.3,626.524 2869,629.5C 2869.5,633.821 2869.67,638.154 2869.5,642.5C 2837.2,643.552 2805.2,641.886 2773.5,637.5C 2804.17,637.5 2834.83,637.5 2865.5,637.5C 2865.5,632.167 2865.5,626.833 2865.5,621.5 Z"/></g>
<g><path style="opacity:0.145" fill="#44727b" d="M 3231.5,628.5 C 3235.76,632.119 3237.09,636.619 3235.5,642C 3208.57,643.312 3181.9,642.146 3155.5,638.5C 3169.53,638.817 3183.53,638.317 3197.5,637C 3209.35,635.703 3220.69,632.87 3231.5,628.5 Z"/></g>
<g><path style="opacity:0.14" fill="#48747d" d="M 3998.5,629.5 C 4000.17,630.343 4001.34,631.676 4002,633.5C 4002.5,636.482 4002.66,639.482 4002.5,642.5C 3987.5,642.667 3972.5,642.5 3957.5,642C 3945.61,641.611 3933.94,640.444 3922.5,638.5C 3948.4,639.978 3973.73,636.978 3998.5,629.5 Z"/></g>
<g><path style="opacity:0.963" fill="#76bce0" d="M 238.5,728.5 C 346.179,727.997 453.846,728.83 561.5,731C 572.666,743.127 571.999,754.46 559.5,765C 507.003,766 454.503,766.833 402,767.5C 349.497,766.833 296.997,766 244.5,765C 231.681,759.189 227.848,749.689 233,736.5C 235.054,733.953 236.887,731.286 238.5,728.5 Z"/></g>
</svg>
